Title                            : Rise of the Planet of the Apes
Year                             : 2011
Genre                            : Action | Drama | Sci-F
iMDB URL                         : http://www.imdb.com/title/tt1318514/

Complete name                    : Rise.of.the.Planet.of.the.Apes.2011.BRRIP.1080P.H264-ZEKTORM.mp4
Format                           : MPEG-4
Format profile                   : Base Media
Codec ID                         : isom
File size                        : 4.34 GiB
Duration                         : 1h 44mn
Overall bit rate                 : 5916 Kbps
Subtitles                        : English (Format: srt)

Video
ID                               : 1
Format                           : AVC
Format/Info                      : Advanced Video Codec
Format profile                   : High@L4.1
Format settings, CABAC           : Yes
Format settings, ReFrames        : 5 frames
Codec ID                         : avc1
Codec ID/Info                    : Advanced Video Coding
Duration                         : 1h 44mn
Bit rate mode                    : Variable
Bit rate                         : 5468 Kbps
Width                            : 1920 pixels
Height                           : 816 pixels
Display aspect ratio             : 2.35
Frame rate mode                  : Constant
Frame rate                       : 23.976 fps
Resolution                       : 24 bits
Colorimetry                      : 4:2:0
Scan type                        : Progressive
Bits/(Pixel*Frame)               : 0.146
Stream size                      : 4.01 GiB (92%)
Title                            : Video
Writing library                  : x264

Audio
ID                               : 2
Format                           : AAC
Format/Info                      : Advanced Audio Codec
Format version                   : Version 4
Format profile                   : LC
Format settings, SBR             : No
Codec ID                         : 40
Duration                         : 1h 44mn
Bit rate mode                    : Variable
Bit rate                         : 444 Kbps
Maximum bit rate                 : 537 Kbps
Channel(s)                       : 6 channels
Channel positions                : Front: L C R, Rear: L R, LFE
Sampling rate                    : 48.0 KHz
Resolution                       : 16 bits
Stream size                      : 333 MiB (7%)
Language                         : English


Screenshots:
 
http://img855.imageshack.us/img855/8279/snaprotpota1.png
 
http://img834.imageshack.us/img834/8126/snaprotpota2.png
 
http://img829.imageshack.us/img829/8809/snaprotpota3.png
 
http://img705.imageshack.us/img705/1763/snaprotpota4.png
